# xmcd CD database file
#
# Track frame offsets:
#        150
#        14381
#        28578
#        41489
#        54820
#        68806
#        83002
#        95668
#        108356
#        122262
#        136727
#        150073
#        162800
#        176314
#        190217
#        204629
#        219698
#        234217
#        249119
#        263728
#        278839
#        293030
#
# Disc length: 4096 seconds
#
# Revision: 0
# Processed by: cddbd v1.5.2PL0 Copyright (c) Steve Scherf et al.
# Submitted via: CUERipper 2.1.6
#
DISCID=120ffe16
DTITLE=Various Artist - Mississippi Hillbillies [CDA)
DYEAR=2020
DGENRE=Folk, World, Country
TTITLE0=Floyd Ming And His Pep Steppers - Indian War Whoop
TTITLE1=Floyd Ming And His Pep Steppers - Old Red
TTITLE2=Nations Brothers - Sales Tax Doodle
TTITLE3=Nations Brothers - Lincoln County Blues
TTITLE4=Narmour and Smith - Charleston No. 1
TTITLE5=Narmour and Smith - Carroll County Blues
TTITLE6=Carter Brothers and Son - Give Me A Chaw Tobacco
TTITLE7=Carter Brothers and Son - Leather Breeches
TTITLE8=Leake County Revelers - Leake County Blues
TTITLE9=Leake County Revelers - Lonesome Blues
TTITLE10=Ray Brothers - Jake Leg Wobble
TTITLE11=Ray Brothers - Friday Night Waltz
TTITLE12=Narmour and Smith - Charleston No. 2
TTITLE13=Narmour and Smith - Carroll County Blues No. 2
TTITLE14=Freeny's Barn Dance Band - Sullivan's Hollow
TTITLE15=Freeny's Barn Dance Band - Don't You Remember The Time
TTITLE16=Narmour and Smith - Charleston No. 3
TTITLE17=Narmour and Smith - Carroll County Blues No. 3
TTITLE18=Leake County Revelers - Mississippi Breakdown
TTITLE19=Leake County Revelers - Bring Me A Bottle
TTITLE20=Floyd Ming And His Pep Steppers - Indian War Whoop (Alt. Take)
TTITLE21=Floyd Ming And His Pep Steppers - Old Red (Alt. Take)
EXTD=
EXTT0=
EXTT1=
EXTT2=
EXTT3=
EXTT4=
EXTT5=
EXTT6=
EXTT7=
EXTT8=
EXTT9=
EXTT10=
EXTT11=
EXTT12=
EXTT13=
EXTT14=
EXTT15=
EXTT16=
EXTT17=
EXTT18=
EXTT19=
EXTT20=
EXTT21=
PLAYORDER=
